<svg id="cart_icon" xmlns="http://www.w3.org/2000/svg" viewBox="0 0 32 32"><defs><style>.cls-1{fill:#3d1101;}</style></defs><title>cart</title><path class="cls-1" d="M27,19.61H9.2a.5.5,0,0,1-.49-.39L5.27,4.58H.81a.5.5,0,0,1,0-1H5.66A.49.49,0,0,1,6.15,4L9.59,18.61H27a.5.5,0,0,1,0,1Z"/><path class="cls-1" d="M27.44,16.5a.45.45,0,0,1-.16,0,.5.5,0,0,1-.31-.63L30.49,5.58H8.2a.5.5,0,0,1-.5-.5.5.5,0,0,1,.5-.5h23a.5.5,0,0,1,.47.66L27.92,16.16A.51.51,0,0,1,27.44,16.5Z"/><path class="cls-1" d="M26.76,22H9a.5.5,0,0,1-.5-.5A.5.5,0,0,1,9,21H26.76a.5.5,0,0,1,.5.5A.51.51,0,0,1,26.76,22Z"/><path class="cls-1" d="M24.43,28.42a3.09,3.09,0,0,1-2.19-5.28.5.5,0,0,1,.71,0,.51.51,0,0,1,0,.71,2.08,2.08,0,0,0,0,3,2.14,2.14,0,0,0,3,0,2.1,2.1,0,0,0,0-3,.5.5,0,0,1,.71-.71,3.1,3.1,0,0,1-2.19,5.28Z"/><path class="cls-1" d="M11.63,28.42a3.09,3.09,0,0,1-2.18-5.28.48.48,0,0,1,.7,0,.5.5,0,0,1,0,.71,2.09,2.09,0,0,0-.61,1.48,2.12,2.12,0,0,0,.61,1.48,2.14,2.14,0,0,0,3,0,2.09,2.09,0,0,0,.62-1.48,2.06,2.06,0,0,0-.62-1.48.51.51,0,0,1,0-.71.5.5,0,0,1,.71,0,3.08,3.08,0,0,1,0,4.37A3,3,0,0,1,11.63,28.42Z"/></svg>